# xmcd
# 
# Track frame offsets:
#     150
#     21915
#     48120
#     71987
#     91570
#     112825
#     131702
#     149962
#     166452
#     192902
# 
# Disc length: 2878
# 
# Revision: 6
# Processed by: cddbd v1.5.2PL0 Copyright (c) Steve Scherf et al.
# Submitted via: fre:ac v1.1beta1pre5
# 
DISCID=8d0b3c0a
DTITLE=上海交響樂團 - 中國交響世紀-戀戀情聲CD2卷拾貳 現代國語,台語流行
DYEAR=1997
DGENRE=Pop
TTITLE0=歡喜就好
TTITLE1=酒後的心聲
TTITLE2=舊情也綿綿
TTITLE3=傷心酒店
TTITLE4=風真透
TTITLE5=雪中紅
TTITLE6=疼惜我的吻
TTITLE7=向前走
TTITLE8=雙人枕頭
TTITLE9=針線情
EXTD=¥_¨Ê¤¤¥¡¥æÅT¼Ö¹Îºt«µ\n¤¤¥¡ºq¼@ªÝÁ¢»R¼@°|¥æÅT¼Ö¹Îºt«µ YEAR: 1997
EXTT0=卷拾貳 薊芒草的春天-真想要飛的台語新情
EXTT1=卷拾貳 薊芒草的春天-真想要飛得台語心情
EXTT2=卷拾貳 薊芒草的春天-真想要飛得台語心情
EXTT3=卷拾貳 薊芒草的春天-真想要飛得台語心情
EXTT4=卷拾貳 薊芒草的春天-真想要飛得台語心情
EXTT5=卷拾貳 薊芒草的春天-真想要飛得台語心情
EXTT6=卷拾貳 薊芒草的春天-真想要飛得台語心情
EXTT7=卷拾貳 薊芒草的春天-真想要飛得台語心情
EXTT8=卷拾貳 薊芒草的春天-真想要飛得台語心情
EXTT9=卷拾貳 薊芒草的春天-真想要飛得台語心情
PLAYORDER=
